<svg xmlns="http://www.w3.org/2000/svg" xmlns:xlink="http://www.w3.org/1999/xlink" viewBox="0,0,256,256" width="50px" height="50px"><g fill="#1ca434" fill-rule="nonzero" stroke="none" stroke-width="1" stroke-linecap="butt" stroke-linejoin="miter" stroke-miterlimit="10" stroke-dasharray="" stroke-dashoffset="0" font-family="none" font-weight="none" font-size="none" text-anchor="none" style="mix-blend-mode: normal"><g transform="scale(2.56,2.56)"><path d="M29.12695,15.60547c-1.07523,-0.00502 -2.15689,-0.00078 -3.24609,0.01563c-0.00521,-0.00002 -0.01042,-0.00002 -0.01562,0c-2.15613,0.04777 -4.20593,0.95194 -5.69336,2.51367c-1.48647,1.56072 -2.29205,3.65269 -2.23633,5.80859l-0.00195,-0.02148c0.25743,16.7435 -1.60897,34.07287 -0.66992,50.6543c0.00058,0.00977 0.00123,0.01954 0.00195,0.0293c0.30866,4.3806 3.85399,7.87771 8.23828,8.12695c0.00065,0 0.0013,0 0.00195,0c18.37521,1.03623 35.59215,1.21519 51.13477,0.1543c0.00521,0.00002 0.01042,0.00002 0.01563,0c4.48166,-0.3377 7.91841,-4.22127 7.70898,-8.71094c-0.00062,-0.00651 -0.00127,-0.01302 -0.00195,-0.01953c-0.62035,-11.06964 -0.32352,-10.71374 0.0625,-14.39258c0.38599,-3.67856 0.81441,-10.85958 0.41211,-36.07617c-0.02884,-2.04499 -0.91133,-3.9876 -2.43164,-5.35547c-1.5189,-1.3666 -3.54054,-2.03907 -5.57422,-1.85547h-0.00586c-16.89147,1.48862 -31.57069,-0.79587 -47.69922,-0.87109zM29.11914,19.60547c11.91673,0.06457 23.31664,1.39094 35.70117,1.375l-0.62891,0.62891c-0.26123,0.25082 -0.36645,0.62326 -0.27509,0.9737c0.09136,0.35043 0.36502,0.6241 0.71546,0.71546c0.35043,0.09136 0.72288,-0.01386 0.9737,-0.27509l2.06836,-2.07031c0.66665,-0.01262 1.33665,-0.02901 2.00977,-0.05078l-0.80664,0.80469c-0.39102,0.39102 -0.39102,1.02499 0,1.41602c0.39102,0.39102 1.02499,0.39102 1.41602,0l2.34961,-2.35156c1.31648,-0.07026 2.64483,-0.1568 3.99023,-0.26953l-3.33984,3.3418c-0.26124,0.25082 -0.36648,0.62327 -0.27512,0.97371c0.09136,0.35044 0.36503,0.62411 0.71547,0.71547c0.35044,0.09136 0.72289,-0.01388 0.97371,-0.27512l4.39258,-4.39258c0.224,0.12307 0.43728,0.26724 0.63086,0.44141c0.5187,0.46669 0.87389,1.07604 1.02539,1.74414l-3.44336,3.44336c-0.25307,0.25257 -0.35214,0.62099 -0.25987,0.96642c0.09227,0.34543 0.36184,0.61538 0.70715,0.70813c0.34531,0.09274 0.71386,-0.00581 0.96678,-0.25854l2.13867,-2.13867c0.01538,1.04896 0.02666,2.01507 0.03906,2.99805l-1.73437,1.38281c-0.28422,0.22105 -0.42767,0.57782 -0.3756,0.93409c0.05208,0.35628 0.29165,0.65705 0.62725,0.7875c0.3356,0.13045 0.71542,0.07043 0.99444,-0.15715l0.52148,-0.41602c0.01062,0.98628 0.01781,1.88766 0.02539,2.80469l-1.42383,1.13281c-0.28422,0.22105 -0.42767,0.57782 -0.3756,0.93409c0.05208,0.35628 0.29165,0.65705 0.62725,0.7875c0.3356,0.13045 0.71542,0.07043 0.99444,-0.15715l0.19531,-0.1543c0.08303,14.75366 -0.24407,19.94367 -0.5332,22.69922c-0.36173,3.44741 -0.70082,3.88684 -0.07617,15.0332l-0.00195,-0.01953c0.05081,1.08934 -0.3056,2.08789 -0.92187,2.87695l-1.66992,-3.03125c-0.17664,-0.33298 -0.52548,-0.53836 -0.90234,-0.53125c-0.3531,0.00661 -0.67653,0.19897 -0.85092,0.50606c-0.17439,0.3071 -0.1739,0.6834 0.00131,0.99003l1.83398,3.32813c-0.4599,0.21132 -0.9604,0.35521 -1.49805,0.39648c-0.47312,0.03228 -0.96299,0.05402 -1.43945,0.08398l-2.5293,-4.33984c-0.18489,-0.32776 -0.5381,-0.52399 -0.91406,-0.50781c-0.35253,0.01549 -0.6708,0.21562 -0.83752,0.52662c-0.16672,0.311 -0.15721,0.68684 0.02502,0.98901l2.01563,3.46094c-9.02654,0.49491 -18.62038,0.59423 -28.68555,0.36133l0.89648,-0.89258c0.29635,-0.28654 0.38653,-0.72556 0.22712,-1.10571c-0.15941,-0.38016 -0.53573,-0.62356 -0.94782,-0.61304c-0.2602,0.00672 -0.50753,0.11462 -0.68945,0.30078l-2.25195,2.23633c-1.46894,-0.0423 -2.94788,-0.09089 -4.43555,-0.14648l1.91016,-1.89844c0.29635,-0.28654 0.38653,-0.72556 0.22712,-1.10571c-0.15941,-0.38016 -0.53573,-0.62356 -0.94782,-0.61304c-0.2602,0.00672 -0.50753,0.11462 -0.68945,0.30078l-3.23047,3.21094c-1.37561,-0.05828 -2.76182,-0.12444 -4.15234,-0.19336l2.71289,-2.16992c0.33972,-0.2645 0.47204,-0.71673 0.32847,-1.12263c-0.14357,-0.4059 -0.53081,-0.67436 -0.96128,-0.66643c-0.22538,0.00381 -0.44287,0.08364 -0.61719,0.22656l-4.47461,3.57813c-0.39149,-0.02134 -0.77537,-0.03646 -1.16797,-0.05859h-0.00195c-1.35298,-0.07746 -2.53089,-0.71797 -3.3457,-1.67969l4.39844,-1.98047c0.42797,-0.18688 0.66963,-0.64506 0.58219,-1.1038c-0.08744,-0.45873 -0.48072,-0.79588 -0.94742,-0.81222c-0.15695,-0.00491 -0.31285,0.02721 -0.45508,0.09375l-4.5293,2.03906c-0.08755,-0.31029 -0.15181,-0.63081 -0.17578,-0.96484c-0.07649,-1.35423 -0.1256,-2.7199 -0.16602,-4.08984l5.47656,-1.08789c0.51516,-0.09627 0.86862,-0.5739 0.81013,-1.0947c-0.05849,-0.5208 -0.50911,-0.90812 -1.03279,-0.88772c-0.05644,0.00176 -0.11263,0.00829 -0.16797,0.01953l-5.14062,1.02148c-0.02354,-1.30929 -0.01507,-2.63377 -0.01367,-3.95508c0.00521,-0.00061 0.01042,-0.00126 0.01562,-0.00195l4.54883,-0.76758c0.51826,-0.08055 0.88625,-0.54778 0.84312,-1.07048c-0.04313,-0.5227 -0.48273,-0.92329 -1.00719,-0.9178c-0.05639,0.00111 -0.11258,0.00699 -0.16797,0.01758l-4.24023,0.71289c0.01123,-1.21602 0.04427,-2.4436 0.07031,-3.66797l2.39258,-0.13672c0.53548,-0.03382 0.94887,-0.48418 0.93681,-1.02059c-0.01206,-0.53641 -0.44527,-0.96774 -0.98173,-0.97746c-0.02345,-0.00017 -0.04691,0.00048 -0.07031,0.00195l-2.23828,0.12891c0.02763,-1.04403 0.06144,-2.09367 0.0957,-3.14258l2.08203,-0.11914c0.53548,-0.03382 0.94887,-0.48418 0.93681,-1.02059c-0.01206,-0.53641 -0.44527,-0.96774 -0.98173,-0.97746c-0.02345,-0.00017 -0.0469,0.00048 -0.07031,0.00195l-1.90039,0.10938c0.32251,-9.10264 0.78785,-18.35404 0.64648,-27.54883c0.00003,-0.00651 0.00003,-0.01302 0,-0.01953c-0.02828,-1.0941 0.37923,-2.15204 1.13477,-2.94531c0.75413,-0.7918 1.79161,-1.25066 2.88477,-1.27539c1.06034,-0.01587 2.11483,-0.01937 3.16602,-0.01367zM25.60156,27.17773c-0.55228,0 -1,0.44772 -1,1c0,0.55228 0.44772,1 1,1c0.55228,0 1,-0.44772 1,-1c0,-0.55228 -0.44772,-1 -1,-1zM33.79297,27.17773c-0.55228,0 -1,0.44772 -1,1c0,0.55228 0.44772,1 1,1c0.55228,0 1,-0.44772 1,-1c0,-0.55228 -0.44772,-1 -1,-1zM30.60156,31.58008c-0.55228,0 -1,0.44772 -1,1c0,0.55228 0.44772,1 1,1c0.55228,0 1,-0.44772 1,-1c0,-0.55228 -0.44772,-1 -1,-1zM67.26172,36.83594c-0.45048,-0.01351 -0.89232,0.12551 -1.25391,0.39453c-6.80207,4.90684 -12.22766,12.44922 -16.83203,20.71094c-3.28243,-3.55441 -7.55805,-6.67329 -13.16211,-9.16992c-0.6528,-0.29109 -1.41131,-0.21177 -1.98976,0.20807c-0.57845,0.41985 -0.88895,1.11642 -0.81452,1.82729c0.07443,0.71087 0.52249,1.32802 1.17537,1.61893c6.24514,2.78224 10.54903,6.22589 13.55469,10.15234c0.41476,0.54058 1.07619,0.83285 1.75514,0.77554c0.67895,-0.0573 1.28204,-0.45629 1.60033,-1.05875c4.7339,-8.96566 10.39491,-17.01754 17.05273,-21.82031c0.70666,-0.49398 1.01726,-1.3852 0.77069,-2.21139c-0.24657,-0.82619 -0.99481,-1.4014 -1.85663,-1.42728z"></path></g></g></svg>